<?xml version="1.0" encoding="UTF-8"?>
<svg id="Capa_2" data-name="Capa 2" xmlns="http://www.w3.org/2000/svg" xmlns:xlink="http://www.w3.org/1999/xlink" viewBox="0 0 413.93 90.42">
  <defs>
    <style>
      .cls-1 {
        fill: none;
        stroke: #a01216;
        stroke-width: 6px;
      }

      .cls-1, .cls-2, .cls-3 {
        stroke-miterlimit: 10;
      }

      .cls-4 {
        font-family: Teko-Medium, Teko;
        font-size: 26.09px;
        font-weight: 500;
      }

      .cls-4, .cls-5 {
        fill: #dee4e9;
      }

      .cls-2 {
        fill: url(#Degradado_sin_nombre_5);
      }

      .cls-2, .cls-3 {
        stroke: #fff;
      }

      .cls-3 {
        fill: url(#Degradado_sin_nombre_5-2);
      }
    </style>
    <linearGradient id="Degradado_sin_nombre_5" data-name="Degradado sin nombre 5" x1="206.96" y1=".5" x2="206.96" y2="85.24" gradientUnits="userSpaceOnUse">
      <stop offset="0" stop-color="#537487"/>
      <stop offset=".14" stop-color="#507083"/>
      <stop offset=".27" stop-color="#486678"/>
      <stop offset=".4" stop-color="#3c5465"/>
      <stop offset=".47" stop-color="#324757"/>
    </linearGradient>
    <linearGradient id="Degradado_sin_nombre_5-2" data-name="Degradado sin nombre 5" x1="206.96" y1="8.37" x2="206.96" xlink:href="#Degradado_sin_nombre_5"/>
  </defs>
  <g id="Capa_1-2" data-name="Capa 1">
    <g>
      <g>
        <path class="cls-2" d="M391.6,17.94l-2.55,3.4h7.83l-13.38,17.75h-8l-2.67,3.4h7.77l-14.18,18.77h-7.83l-3.06,3.74h7.71l-10.89,14.18h-90.75l-2.72,6.04h-103.83l-2.72-6.04H61.58l-10.89-14.18h7.71l-3.06-3.74h-7.83l-14.18-18.77h7.77l-2.67-3.4h-8l-13.38-17.75h7.83l-2.55-3.4h-8.28L1,.5h173.73l8.11,8.94c.29.32.71.51,1.14.51h9.21c.49,0,.89-.4.89-.89v-.21c0-.56-.23-1.1-.65-1.47-1.18-1.04-3.94-2.67-8.25-.39l-5.96-6.49h23.71s.34,4.67,3.02,6.01c.64.32,1.41.32,2.05,0,2.67-1.34,3.01-6.01,3.01-6.01h23.71l-5.96,6.49c-4.31-2.28-7.07-.65-8.25.39-.42.37-.65.91-.65,1.47v.21c0,.49.4.89.89.89h9.21c.43,0,.85-.18,1.14-.51l8.11-8.94h173.73l-13.05,17.44h-8.28Z"/>
        <polygon class="cls-3" points="383.61 14.38 353.42 59.87 337.06 59.87 331.1 70.7 264.9 70.7 258.88 85.24 155.05 85.24 149.03 70.7 82.82 70.7 76.87 59.87 60.51 59.87 30.32 14.38 50.17 14.38 47.11 8.37 164.63 8.37 168.15 14.38 245.78 14.38 249.3 8.37 366.82 8.37 363.76 14.38 383.61 14.38"/>
      </g>
      <line class="cls-1" x1="89.23" y1="65.29" x2="144.37" y2="65.29"/>
      <line class="cls-1" x1="269.94" y1="65.29" x2="325.08" y2="65.29"/>
      <g>
        <polygon class="cls-5" points="92.47 29.29 90.52 18.25 81.88 18.25 79.93 29.29 92.47 29.29"/>
        <polygon class="cls-5" points="105.84 29.29 107.97 18.25 99.52 18.25 97.96 29.29 105.84 29.29"/>
        <polygon class="cls-5" points="97.65 31.46 95.52 46.55 92.86 31.46 86.25 31.46 90.46 56.14 100.65 56.14 105.42 31.46 97.65 31.46"/>
        <polygon class="cls-5" points="74.7 29.29 73.3 18.25 64.48 18.25 66.62 29.29 74.7 29.29"/>
        <polygon class="cls-5" points="79.54 31.46 76.88 46.55 74.97 31.46 67.04 31.46 71.81 56.14 82 56.14 86.21 31.46 79.54 31.46"/>
        <polygon class="cls-5" points="122.44 29.29 122.87 27.06 123.3 29.29 130.86 29.29 128.29 18.25 117.45 18.25 114.95 29.29 122.44 29.29"/>
        <polygon class="cls-5" points="123.72 31.46 125.97 43.09 119.77 43.09 122.02 31.46 114.45 31.46 108.87 56.14 117.27 56.14 118.58 49.29 127.22 49.29 128.53 56.14 137.11 56.14 131.37 31.46 123.72 31.46"/>
        <path class="cls-5" d="M163.14,35.41v-3.94h-8.52v3.05c0,1.07-.42,1.43-1.55,1.43h-4.59v-4.48h-8.46v24.67h8.46v-14.18h1.49l5.96,14.18h9.12l-6.67-14.42c3.4-.77,4.77-3.04,4.77-6.31Z"/>
        <path class="cls-5" d="M148.48,29.29v-4.79h4.59c1.13,0,1.55.42,1.55,1.49v3.3h8.52v-4.49c0-4.05-2.09-6.55-7.51-6.55h-15.61v11.04h8.46Z"/>
        <path class="cls-5" d="M167.13,35.41h16.09v5.84h-16.09v-5.84Z"/>
        <path class="cls-5" d="M196.2,29.29v-4.79h4.59c1.13,0,1.55.42,1.55,1.49v3.3h8.52v-4.49c0-4.05-2.09-6.55-7.51-6.55h-15.61v11.04h8.46Z"/>
        <path class="cls-5" d="M210.86,35.41v-3.94h-8.52v3.05c0,1.07-.42,1.43-1.55,1.43h-4.59v-4.48h-8.46v24.67h8.46v-14.18h1.49l5.96,14.18h9.12l-6.67-14.42c3.4-.77,4.77-3.04,4.77-6.31Z"/>
        <polygon class="cls-5" points="224.2 29.29 224.2 24.5 235.88 24.5 235.88 18.25 215.68 18.25 215.68 29.29 224.2 29.29"/>
        <polygon class="cls-5" points="224.2 39.99 234.15 39.99 234.15 33.74 224.2 33.74 224.2 31.46 215.68 31.46 215.68 56.14 236.36 56.14 236.36 49.88 224.2 49.88 224.2 39.99"/>
        <polygon class="cls-5" points="262.46 29.29 264.89 18.25 256.08 18.25 254.2 29.29 262.46 29.29"/>
        <polygon class="cls-5" points="253.84 31.46 251.31 46.37 248.82 31.46 240.66 31.46 246.13 56.14 256.55 56.14 261.98 31.46 253.84 31.46"/>
        <polygon class="cls-5" points="248.45 29.29 246.6 18.25 237.73 18.25 240.17 29.29 248.45 29.29"/>
        <rect class="cls-5" x="268.17" y="18.25" width="8.46" height="11.04"/>
        <rect class="cls-5" x="268.17" y="31.46" width="8.46" height="24.67"/>
        <polygon class="cls-5" points="290.69 29.29 290.69 24.5 302.36 24.5 302.36 18.25 282.17 18.25 282.17 29.29 290.69 29.29"/>
        <polygon class="cls-5" points="290.69 39.99 300.64 39.99 300.64 33.74 290.69 33.74 290.69 31.46 282.17 31.46 282.17 56.14 302.84 56.14 302.84 49.88 290.69 49.88 290.69 39.99"/>
        <polygon class="cls-5" points="314.66 29.29 313.27 18.25 304.45 18.25 306.59 29.29 314.66 29.29"/>
        <path class="cls-5" d="M324.81,29.35c2.55,0,5.1,0,7.64.01l-1.97-11.11h-8.64l-1.95,11.04h4.54c.14,0,.26.02.37.06Z"/>
        <path class="cls-5" d="M345.78,29.4l2.16-11.15h-8.46l-1.57,11.13c2.62,0,5.25.01,7.87.02Z"/>
        <path class="cls-5" d="M337.6,31.55l-2.12,14.99-2.65-15.01c-2.2,0-4.41-.01-6.61-.01l4.2,24.61h10.19l4.75-24.57c-2.59,0-5.17-.01-7.76-.02Z"/>
        <path class="cls-5" d="M323.81,31.52c-.13,0-.26-.02-.36-.06h-3.94l-2.67,15.08-1.91-15.08h-7.93l4.77,24.67h10.19l4.2-24.61c-.78,0-1.57,0-2.35,0Z"/>
      </g>
      <text class="cls-4" transform="translate(176.38 79.51)"><tspan x="0" y="0">40,000</tspan></text>
    </g>
  </g>
</svg>