<?xml version="1.0" encoding="UTF-8"?>
<svg id="Capa_2" data-name="Capa 2" xmlns="http://www.w3.org/2000/svg" viewBox="0 0 43.8 41.74">
  <defs>
    <style>
      .cls-1 {
        fill: #c2a83e;
      }
    </style>
  </defs>
  <g id="Capa_3" data-name="Capa 3">
    <path class="cls-1" d="M22.69.57l4.6,14.16c.11.34.43.57.79.57h14.89c.8,0,1.14,1.03.49,1.5l-12.04,8.75c-.29.21-.41.59-.3.93l4.6,14.16c.25.77-.63,1.4-1.28.93l-12.04-8.75c-.29-.21-.69-.21-.98,0l-12.04,8.75c-.65.47-1.53-.16-1.28-.93l4.6-14.16c.11-.34-.01-.72-.3-.93L.34,16.81c-.65-.47-.32-1.5.49-1.5h14.89c.36,0,.68-.23.79-.57L21.11.57c.25-.77,1.33-.77,1.58,0Z"/>
  </g>
</svg>