<?xml version="1.0" encoding="UTF-8"?>
<svg id="Capa_2" data-name="Capa 2" xmlns="http://www.w3.org/2000/svg" viewBox="0 0 324.56 117.17">
  <defs>
    <style>
      .cls-1 {
        fill: #fff;
      }

      .cls-2 {
        fill: #c2a83e;
      }
    </style>
  </defs>
  <g id="Capa_4" data-name="Capa 4">
    <g>
      <g>
        <path class="cls-2" d="M132.8,44.76l1.54,9.62-9.06,9.41,3.69-17.07c.34-1.57-.86-3.06-2.47-3.06h0c-1.18,0-2.2.81-2.46,1.96l-5.65,24.53-6.8,3.05,9.34-26.9c.52-1.51-.43-3.13-2-3.41h0c-1.19-.21-2.36.42-2.84,1.53l-12.35,28.78-10.98,1.22,19.52-30.15c.9-1.39.42-3.25-1.05-4.03l-.06-.03c-1.21-.64-2.68-.36-3.56.66-5.66,6.61-25.4,29.54-25.4,29.54l-8.28-3.83,30.75-28.14c1.16-1.06,1.4-2.81.56-4.15h0c-.97-1.55-3.04-2-4.57-.99l-37.03,24.47-8.8-5.49,46.73-22.69c.84-.41,1.36-1.26,1.34-2.19h0c-.03-1.64-1.67-2.76-3.21-2.2l-53.23,19.58-9.06-7.58,64.94-16.96c.69-.18,1.24-.71,1.44-1.4h0c.43-1.44-.8-2.84-2.29-2.59L27.51,28.49l-9.15-8.89,85.27-7.2c1.48-.13,2.82-.94,3.63-2.18.73-1.12,1.75-2.46,2.86-3.25L9.99,10.46,0,0h123.16s-12.49,8.76-12.53,22.07c-.02,5.62,3.97,10.54,9.46,11.74,5.32,1.16,13.32,1.2,23.98-3.37l9.53,8.6-11.39,30.44s-3.78-5-11.44-6.22c0,0,12.37-10.46,14.46-18.91,2.09-8.45-5.05-7.06-5.14-4.36s1.48,5.66,1.48,5.66l-3.54,3.54s-.36-2.82-.67-5.18c-.2-1.54-1.86-2.42-3.25-1.72l-.05.03c-.91.46-1.41,1.44-1.25,2.43Z"/>
        <path class="cls-2" d="M191.76,44.76l-1.54,9.62,9.06,9.41-3.69-17.07c-.34-1.57.86-3.06,2.47-3.06h0c1.18,0,2.2.81,2.46,1.96l5.65,24.53,6.8,3.05-9.34-26.9c-.52-1.51.43-3.13,2-3.41h0c1.19-.21,2.36.42,2.84,1.53l12.35,28.78,10.98,1.22-19.52-30.15c-.9-1.39-.42-3.25,1.05-4.03l.06-.03c1.21-.64,2.68-.36,3.56.66,5.66,6.61,25.4,29.54,25.4,29.54l8.28-3.83-30.75-28.14c-1.16-1.06-1.4-2.81-.56-4.15h0c.97-1.55,3.04-2,4.57-.99l37.03,24.47,8.8-5.49-46.73-22.69c-.84-.41-1.36-1.26-1.34-2.19h0c.03-1.64,1.67-2.76,3.21-2.2l53.23,19.58,9.06-7.58-64.94-16.96c-.69-.18-1.24-.71-1.44-1.4h0c-.43-1.44.8-2.84,2.29-2.59l74.02,12.23,9.15-8.89-85.27-7.2c-1.48-.13-2.82-.94-3.63-2.18-.73-1.12-1.75-2.46-2.86-3.25l100.12,3.49L324.56,0h-123.16s12.49,8.76,12.53,22.07c.02,5.62-3.97,10.54-9.46,11.74s-13.32,1.2-23.98-3.37l-9.53,8.6,11.39,30.44s3.78-5,11.44-6.22c0,0-12.37-10.46-14.46-18.91s5.05-7.06,5.14-4.36-1.48,5.66-1.48,5.66l3.54,3.54s.36-2.82.67-5.18c.2-1.54,1.86-2.42,3.25-1.72l.05.03c.91.46,1.41,1.44,1.25,2.43Z"/>
      </g>
      <polygon class="cls-2" points="162.28 21.33 180.03 76.04 162.28 86.67 144.53 76.04 162.28 21.33"/>
      <polygon class="cls-2" points="162.28 83.48 168.53 110.22 162.28 115.42 156.03 110.22 162.28 83.48"/>
      <path class="cls-2" d="M146.04,79.7l3.86,3.86-9.32,12.17,7.84,9.18-13.59,5.98,5.79-6.74c.54-.62.62-1.52.21-2.23l-.39-.69c-.74-1.29-2.59-1.3-3.35-.03l-5.87,9.87c-.18.3-.27.64-.27.99v.7c0,.55.23,1.07.63,1.44l3.26,2.97-8.37-1.86-.29-6.04,7.47-9.38c.92-1.16.26-2.88-1.2-3.13l-1.33-.22c-.96-.16-1.9.42-2.18,1.35l-2.76,9.11v-13.36h11.87l8-13.94Z"/>
      <path class="cls-2" d="M178.52,79.7l-3.86,3.86,9.32,12.17-7.84,9.18,13.59,5.98-5.79-6.74c-.54-.62-.62-1.52-.21-2.23l.39-.69c.74-1.29,2.59-1.3,3.35-.03l5.87,9.87c.18.3.27.64.27.99v.7c0,.55-.23,1.07-.63,1.44l-3.26,2.97,8.37-1.86.29-6.04-7.47-9.38c-.92-1.16-.26-2.88,1.2-3.13l1.33-.22c.96-.16,1.9.42,2.18,1.35l2.76,9.11v-13.36s-11.87,0-11.87,0l-8-13.94Z"/>
      <g>
        <polygon class="cls-2" points="154.96 81.07 144.79 96.11 148.68 99.66 156.29 82.4 154.96 81.07"/>
        <polygon class="cls-2" points="159.14 83.48 150.86 101.21 155.16 104.7 160.63 84.81 159.14 83.48"/>
        <polygon class="cls-2" points="169.6 81.07 179.77 96.11 175.88 99.66 168.27 82.4 169.6 81.07"/>
        <polygon class="cls-2" points="165.42 83.48 173.7 101.21 169.4 104.7 163.93 84.81 165.42 83.48"/>
      </g>
      <path class="cls-2" d="M196.21,94.09c.22-.45,1.48-6.11,1.48-6.11l2,3.88,4.88.22-6.19,3.22-2.17-1.21Z"/>
      <path class="cls-2" d="M179.64,105.43c-.37.34-3.63,5.14-3.63,5.14l-.43-4.34-4.46-2,6.94-.72,1.58,1.92Z"/>
      <g>
        <path class="cls-2" d="M147.11,23.05s-.17-8.15,5.75-8.54l8.67,6.4-4.53,11.98-9.89-9.85Z"/>
        <path class="cls-2" d="M144.53,19.9s-.03-6.85,6.59-8.13c6.62-1.28,9-2.5,9-2.5h-26.78s-2-.03,0,1.98,11.18,8.66,11.18,8.66Z"/>
        <path class="cls-2" d="M132.67,13.71l-5.26,1.95c-.73.27-1.16,1.03-1.02,1.8l1.5,8.21s2.15-5.96,7.41-6.53c1.24-.13,1.81-1.61,1.04-2.59l-1.84-2.34c-.43-.55-1.17-.75-1.82-.51Z"/>
        <path class="cls-2" d="M177.49,23.05s.17-8.15-5.75-8.54l-8.67,6.4,4.53,11.98,9.89-9.85Z"/>
        <path class="cls-2" d="M180.08,19.9s.03-6.85-6.59-8.13-9-2.5-9-2.5h26.78s2-.03,0,1.98-11.18,8.66-11.18,8.66Z"/>
        <path class="cls-2" d="M191.94,13.71l5.26,1.95c.73.27,1.16,1.03,1.02,1.8l-1.5,8.21s-2.15-5.96-7.41-6.53c-1.24-.13-1.81-1.61-1.04-2.59l1.84-2.34c.43-.55,1.17-.75,1.82-.51Z"/>
        <polygon class="cls-1" points="138.74 12.62 143.72 14.31 143.72 10.93 138.74 12.62"/>
      </g>
    </g>
  </g>
</svg>